<svg width="250" height="263" viewBox="0 0 250 263" fill="none" xmlns="http://www.w3.org/2000/svg">
<path d="M-64.9535 -67.6669C-13.5618 -122.065 148.808 -67.2573 203.205 -15.8656C257.603 35.5261 127.095 10.819 75.7029 65.2167C24.3112 119.614 3.05423 251.086 -51.3435 199.694C-105.741 148.303 -116.345 -13.2692 -64.9535 -67.6669Z" fill="#A8D400" fill-opacity="0.5"/>
<path d="M-51.0003 199.331C-64.5175 186.56 -75.3453 166.911 -83.1722 143.728C-90.9966 120.552 -95.8091 93.8822 -97.3203 67.1122C-98.8315 40.342 -97.0403 13.4875 -91.6696 -10.0588C-86.2973 -33.6126 -77.353 -53.8142 -64.5901 -67.3236C-51.8629 -80.7953 -32.2227 -87.5462 -8.98583 -89.2501C14.2439 -90.9535 41.003 -87.607 67.8791 -80.9519C121.646 -67.638 175.747 -41.1186 202.862 -15.5024C209.646 -9.09315 213.485 -3.92528 214.982 0.308588C215.726 2.41584 215.886 4.27681 215.553 5.94114C215.22 7.60428 214.389 9.10878 213.094 10.493C210.488 13.2791 206.036 15.5448 200.157 17.5573C194.293 19.5651 187.08 21.2985 179.019 23.06C162.914 26.5789 143.443 30.2037 124.799 36.3507C106.153 42.4983 88.2696 51.1866 75.3393 64.8732C62.4417 78.5252 51.451 96.9933 41.3776 116.172C31.2851 135.388 22.1409 155.257 12.8702 171.883C3.59777 188.511 -5.70756 201.707 -16.018 207.578C-21.1497 210.501 -26.5198 211.602 -32.2724 210.413C-38.0389 209.22 -44.2412 205.716 -51.0003 199.331Z" stroke="#D3E97E" stroke-opacity="0.2"/>
<path d="M-51.0003 199.331C-64.5175 186.56 -75.3453 166.911 -83.1722 143.728C-90.9966 120.552 -95.8091 93.8822 -97.3203 67.1122C-98.8315 40.342 -97.0403 13.4875 -91.6696 -10.0588C-86.2973 -33.6126 -77.353 -53.8142 -64.5901 -67.3236C-51.8629 -80.7953 -32.2227 -87.5462 -8.98583 -89.2501C14.2439 -90.9535 41.003 -87.607 67.8791 -80.9519C121.646 -67.638 175.747 -41.1186 202.862 -15.5024C209.646 -9.09315 213.485 -3.92528 214.982 0.308588C215.726 2.41584 215.886 4.27681 215.553 5.94114C215.22 7.60428 214.389 9.10878 213.094 10.493C210.488 13.2791 206.036 15.5448 200.157 17.5573C194.293 19.5651 187.08 21.2985 179.019 23.06C162.914 26.5789 143.443 30.2037 124.799 36.3507C106.153 42.4983 88.2696 51.1866 75.3393 64.8732C62.4417 78.5252 51.451 96.9933 41.3776 116.172C31.2851 135.388 22.1409 155.257 12.8702 171.883C3.59777 188.511 -5.70756 201.707 -16.018 207.578C-21.1497 210.501 -26.5198 211.602 -32.2724 210.413C-38.0389 209.22 -44.2412 205.716 -51.0003 199.331Z" stroke="#A8D400" stroke-opacity="0.3"/>
<path d="M-22.985 212.163C-36.4201 199.47 -47.2139 179.905 -55.0268 156.764C-62.8349 133.636 -67.64 107.011 -69.1491 80.2795C-70.6581 53.5473 -68.8688 26.7405 -63.5103 3.24768C-58.1485 -20.2601 -49.2328 -40.3654 -36.5548 -53.785C-23.9483 -67.1288 -4.45168 -73.857 18.723 -75.5564C41.8832 -77.2547 68.5861 -73.9188 95.43 -67.2716C149.147 -53.97 203.16 -27.4804 230.19 -1.9436C236.959 4.45094 240.726 9.55191 242.182 13.6707C242.903 15.7108 243.046 17.4792 242.734 19.0385C242.423 20.5955 241.643 22.0187 240.401 23.3471C237.883 26.0392 233.529 28.2721 227.666 30.2792C221.831 32.2768 214.645 34.0052 206.584 35.7665C190.5 39.2809 170.99 42.9135 152.314 49.071C133.634 55.2298 115.66 63.9514 102.648 77.7252C89.7006 91.4297 78.6839 109.949 68.607 129.135C58.4916 148.394 49.3782 168.206 40.1055 184.835C30.8297 201.469 21.5819 214.544 11.4066 220.339C6.3657 223.209 1.11838 224.28 -4.49979 223.119C-10.145 221.952 -16.2666 218.51 -22.985 212.163Z" stroke="#D3E97E" stroke-opacity="0.2" stroke-width="2"/>
</svg>
